<svg width="40" height="40" viewBox="0 0 40 40" fill="none" xmlns="http://www.w3.org/2000/svg">
<g id="_cutedevs 1">
<path id="Bg" d="M40 0H0V40H40V0Z" fill="black"/>
<g id="Group">
<g id="D">
<path id="Vector" d="M25.0557 12.6215V22.7682H26.5928C28.3451 22.7682 29.6817 22.3338 30.6024 21.4651C31.5306 20.5963 31.9947 19.334 31.9947 17.6782C31.9947 16.0298 31.5343 14.7749 30.6136 13.9136C29.6929 13.0523 28.3526 12.6216 26.5928 12.6216L25.0557 12.6215ZM20.7677 9.38037H25.2895C27.8141 9.38037 29.6926 9.56229 30.9252 9.92614C32.1652 10.2825 33.227 10.8914 34.1106 11.7528C34.8902 12.5027 35.4694 13.3678 35.8481 14.3479C36.2268 15.328 36.4162 16.4381 36.4162 17.6781C36.4162 18.9329 36.2268 20.0541 35.8481 21.0417C35.4694 22.0218 34.8903 22.8868 34.1106 23.6368C33.2196 24.4981 32.1503 25.1107 30.9029 25.4745C29.6555 25.8309 27.7844 26.0091 25.2896 26.0091H20.7678L20.7677 9.38037Z" fill="#00FDD0"/>
</g>
<g id="C">
<path id="Vector_2" d="M17.8861 25.3116C17.099 25.72 16.2786 26.0282 15.4247 26.2361C14.5708 26.444 13.6798 26.5479 12.7516 26.5479C9.98198 26.5479 7.78788 25.7757 6.16931 24.2312C4.55062 22.6794 3.74127 20.5781 3.74127 17.9274C3.74127 15.2692 4.55062 13.1679 6.16931 11.6236C7.788 10.0717 9.98209 9.29578 12.7516 9.29578C13.6798 9.29578 14.5708 9.39973 15.4247 9.60764C16.2786 9.81554 17.0991 10.1237 17.8861 10.5321V13.9737C17.0916 13.4316 16.3083 13.0344 15.536 12.7819C14.7638 12.5295 13.9507 12.4032 13.0968 12.4032C11.5672 12.4032 10.3643 12.8933 9.48817 13.8734C8.612 14.8535 8.17391 16.2049 8.17391 17.9276C8.17391 19.6428 8.612 20.9905 9.48817 21.9706C10.3643 22.9507 11.5672 23.4408 13.0968 23.4408C13.9507 23.4408 14.7638 23.3146 15.536 23.0621C16.3083 22.8097 17.0916 22.4124 17.8861 21.8704V25.3116Z" fill="#F9F9F9"/>
</g>
<path id="Underscore" d="M17.9294 27.934H3.58322V30.7049H17.9294V27.934Z" fill="#F9F9F9"/>
</g>
</g>
</svg>
